<?xml version="1.0" standalone="no"?>
<!DOCTYPE svg PUBLIC "-//W3C//DTD SVG 20010904//EN"
 "http://www.w3.org/TR/2001/REC-SVG-20010904/DTD/svg10.dtd">
<svg version="1.0" xmlns="http://www.w3.org/2000/svg"
 width="1024.000000pt" height="1024.000000pt" viewBox="0 0 1024.000000 1024.000000"
 preserveAspectRatio="xMidYMid meet">

<g transform="translate(0.000000,1024.000000) scale(0.100000,-0.100000)"
fill="#000000" stroke="none">
<path d="M4980 6555 c-14 -7 -83 -29 -153 -49 l-127 -36 -1125 0 c-974 0
-1125 2 -1125 14 0 36 -40 46 -185 46 -145 0 -185 -10 -185 -46 0 -11 -16 -14
-75 -14 -67 0 -79 -3 -100 -25 -25 -24 -25 -25 -25 -230 l0 -205 -88 0 c-122
0 -122 0 -122 -166 0 -88 4 -134 12 -142 7 -7 31 -12 55 -12 l43 0 0 -1042 c0
-574 3 -1160 6 -1303 l6 -260 -42 -28 -41 -27 3 -113 3 -112 33 -10 c23 -7 32
-15 32 -31 0 -12 9 -33 21 -48 l20 -26 3314 0 3314 0 15 22 c9 12 16 35 16 50
0 24 4 28 29 28 37 0 42 13 47 128 l5 93 -33 33 c-18 18 -37 35 -43 37 -7 3
-9 444 -7 1307 l4 1302 43 0 c69 0 75 12 75 149 0 104 -2 121 -20 144 -19 24
-28 26 -106 29 l-86 3 -2 202 c-1 196 -2 203 -24 225 -19 19 -35 23 -100 26
-69 4 -79 7 -88 25 -9 21 -15 22 -179 22 -167 0 -170 0 -180 -22 l-10 -23
-1045 -2 c-575 -2 -1078 -2 -1118 -1 -72 2 -292 57 -353 89 -15 8 -46 14 -68
14 -32 0 -44 -5 -57 -25 -15 -23 -15 -27 0 -50 l16 -25 -55 0 -55 0 20 20 c24
24 24 29 4 58 -18 26 -74 30 -114 7z m90 -34 c0 -15 -22 -26 -102 -55 -602
-215 -668 -240 -668 -255 -1 -36 -39 -99 -74 -120 -105 -66 -238 10 -238 135
0 136 168 206 268 113 21 -20 21 -20 155 16 277 75 551 156 577 170 40 21 82
19 82 -4z m212 0 c36 -15 338 -102 631 -182 78 -21 79 -21 100 -1 54 49 131
57 188 19 49 -32 83 -105 74 -157 -24 -139 -212 -178 -285 -58 -11 18 -22 44
-25 59 -6 25 -22 33 -233 108 -544 195 -542 194 -542 213 0 24 35 24 92 -1z
m-2860 -90 c3 -29 9 -109 13 -177 l7 -124 -177 0 -177 0 5 43 c4 23 9 101 13
172 3 72 8 133 11 138 2 4 71 6 151 5 l147 -3 7 -54z m5730 -6 c3 -33 9 -113
13 -177 l8 -118 -177 0 c-164 0 -177 1 -172 18 2 9 7 87 11 172 4 85 9 158 12
163 2 4 71 6 151 5 l147 -3 7 -60z m-6076 -17 c-3 -13 -8 -81 -12 -152 -5
-112 -8 -129 -24 -133 -10 -3 -21 -14 -23 -25 -3 -11 -10 -17 -17 -13 -18 11
-40 -15 -40 -46 0 -24 -4 -29 -25 -29 l-25 0 0 191 c0 112 4 198 10 210 9 16
22 19 86 19 72 0 74 -1 70 -22z m756 -188 l-3 -211 -127 3 -127 3 -5 30 c-3
16 -14 34 -25 40 -56 28 -67 52 -76 164 -4 58 -8 123 -8 144 l-1 37 188 0 187
0 -3 -210z m1687 206 c-2 -3 -55 -19 -117 -36 l-112 -31 -47 28 c-69 40 -145
39 -204 -2 -23 -17 -53 -50 -66 -74 l-23 -44 0 81 0 82 287 0 c157 0 284 -2
282 -4z m1089 -109 l313 -113 23 -49 c27 -58 57 -88 108 -110 92 -38 195 5
239 100 l19 40 0 -87 0 -88 -1180 0 -1180 0 0 83 c1 81 1 82 17 52 37 -71 105
-114 177 -115 81 0 162 64 181 142 4 15 14 30 23 33 10 4 147 54 306 111 159
57 292 107 295 109 2 3 81 5 175 5 l171 -1 313 -112z m702 31 l0 -83 -21 43
c-52 105 -174 139 -272 76 l-38 -25 -102 27 c-56 15 -109 30 -117 35 -8 5 109
9 268 9 l282 0 0 -82z m1487 -63 c-7 -136 -8 -146 -32 -169 -13 -13 -33 -27
-44 -31 -13 -4 -21 -17 -23 -38 l-3 -32 -132 -3 -133 -3 0 211 0 210 187 0
186 0 -6 -145z m541 133 c9 -9 12 -69 12 -210 l0 -198 -24 0 c-21 0 -25 6 -28
32 -2 21 -11 36 -23 43 -56 28 -64 45 -75 166 -5 62 -10 129 -10 147 l0 32 68
0 c40 0 73 -5 80 -12z m-4428 -203 l0 -205 -520 0 -520 0 0 205 0 205 520 0
520 0 0 -205z m3480 0 l0 -205 -520 0 -519 0 -3 198 c-2 108 -2 200 0 205 2 4
237 7 523 7 l519 0 0 -205z m-4850 -185 c0 -20 -7 -20 -275 -20 -268 0 -275 0
-275 20 0 20 7 20 275 20 268 0 275 0 275 -20z m5730 0 c0 -20 -7 -20 -270
-20 -263 0 -270 0 -270 20 0 20 7 20 270 20 263 0 270 0 270 -20z m271 -60
c17 -10 19 -22 19 -125 l0 -115 -2912 -2 c-2884 -3 -3308 -3 -3730 0 l-218 2
0 115 c0 98 2 115 18 124 24 15 6796 15 6823 1z m-93 -1572 c-2 -711 -7 -1299
-11 -1305 -7 -10 -240 -13 -1112 -13 -1085 0 -1104 0 -1110 -19 -12 -38 -61
-81 -92 -81 -30 0 -69 33 -92 78 -11 20 -18 22 -105 22 l-93 0 -24 -37 c-51
-79 -109 -82 -161 -8 l-32 45 -187 0 -187 0 -22 -35 c-48 -78 -100 -86 -154
-23 -20 23 -36 45 -36 50 0 4 -88 8 -195 8 l-194 0 -16 -29 c-19 -38 -62 -71
-90 -71 -30 0 -69 32 -85 70 l-12 30 -99 0 c-55 0 -99 -4 -99 -8 0 -5 -16 -27
-36 -50 -53 -63 -104 -54 -150 26 l-18 32 -1102 0 -1101 0 -7 193 c-3 105 -7
693 -9 1305 l-2 1112 3319 0 3318 0 -4 -1292z m-4426 -1408 l15 -60 -1110 0
-1109 0 7 46 c3 26 9 53 12 60 4 12 179 14 1088 14 l1082 0 15 -60z m393 23
c3 -21 9 -48 12 -60 5 -23 4 -23 -91 -23 -53 0 -96 2 -96 4 0 1 4 16 9 32 5
16 12 41 15 57 6 26 8 27 75 27 l69 0 7 -37z m596 -3 c3 -19 9 -45 13 -57 l7
-23 -195 0 c-108 0 -196 3 -196 6 0 6 13 56 26 102 3 10 42 12 171 10 l168 -3
6 -35z m589 18 c1 -13 7 -40 14 -60 l14 -38 -198 0 -197 0 14 48 c8 26 17 53
19 60 2 9 45 12 169 12 164 0 165 0 165 -22z m406 -33 c7 -27 13 -53 14 -57 0
-5 -43 -8 -96 -8 -95 0 -96 0 -90 23 4 12 10 39 13 60 l6 38 70 -3 70 -3 13
-50z m2431 1 c7 -27 10 -53 7 -58 -3 -4 -503 -8 -1111 -8 l-1105 0 5 23 c3 12
9 39 12 60 l7 37 1087 -2 1086 -3 12 -49z m-6641 22 c-4 -13 -10 -60 -13 -105
-5 -72 -8 -83 -24 -83 -17 0 -19 9 -19 83 0 86 15 127 47 127 11 0 14 -6 9
-22z m6708 3 c23 -25 20 -196 -4 -196 -12 0 -16 20 -21 95 -3 53 -9 101 -13
108 -12 20 19 14 38 -7z m-4284 -51 c0 -6 -11 -22 -25 -35 -34 -35 -86 -34
-114 2 -27 33 -23 37 19 19 34 -14 82 -8 104 14 13 13 16 13 16 0z m353 -16
c41 17 48 7 17 -24 -27 -27 -77 -26 -107 2 -33 31 -28 38 15 21 34 -13 43 -13
75 1z m521 -1 c32 -15 38 -15 76 0 45 18 49 13 18 -20 -35 -37 -104 -28 -128
17 -13 24 -10 25 34 3z m669 1 c41 17 48 7 17 -24 -27 -27 -77 -26 -107 2 -33
31 -28 38 15 21 34 -13 43 -13 75 1z m378 -9 c16 4 31 11 34 16 8 12 25 12 25
-1 0 -20 -45 -50 -75 -50 -30 0 -75 30 -75 51 0 5 14 2 31 -6 19 -10 41 -14
60 -10z m-2046 -62 c34 -16 39 -16 84 0 68 24 264 24 311 0 29 -14 38 -15 74
-3 61 21 489 21 534 0 29 -13 37 -13 81 3 71 25 453 25 506 0 32 -15 39 -15
68 -3 49 22 274 26 322 6 46 -20 59 -20 99 -1 27 13 171 15 1151 13 l1120 -3
3 -71 c2 -56 -1 -75 -13 -88 -15 -15 -293 -16 -3304 -16 -2543 0 -3290 3
-3299 12 -7 7 -12 43 -12 90 l0 78 1120 0 c1036 0 1122 -1 1155 -17z"/>
<path d="M4083 6331 c-103 -65 -70 -215 51 -228 43 -5 48 -3 86 35 35 35 40
45 40 86 0 94 -101 155 -177 107z m37 -56 c0 -32 -2 -35 -30 -35 -38 0 -39 21
-4 49 15 12 28 21 30 21 2 0 4 -16 4 -35z m98 -13 c14 -21 13 -22 -22 -22 -35
0 -36 1 -36 36 0 35 1 36 22 22 12 -8 28 -24 36 -36z m-98 -90 c0 -35 -6 -35
-42 -4 -27 23 -22 39 12 38 27 -1 30 -4 30 -34z m100 17 c0 -10 -41 -49 -52
-49 -4 0 -8 15 -8 33 0 32 2 33 30 29 17 -2 30 -8 30 -13z"/>
<path d="M6063 6331 c-39 -25 -63 -68 -63 -117 0 -29 8 -44 39 -75 31 -31 46
-39 75 -39 77 0 126 50 126 130 0 88 -104 147 -177 101z m37 -56 c0 -32 -2
-35 -30 -35 -36 0 -38 13 -5 45 32 33 35 32 35 -10z m98 -13 c14 -21 13 -22
-22 -22 -35 0 -36 1 -36 36 0 35 1 36 22 22 12 -8 28 -24 36 -36z m-98 -87 c0
-41 -9 -44 -37 -12 -37 41 -37 47 1 47 34 0 36 -2 36 -35z m110 25 c0 -6 -11
-22 -25 -35 -33 -34 -45 -31 -45 10 0 33 2 35 35 35 19 0 35 -5 35 -10z"/>
<path d="M7978 6348 c-3 -29 -7 -33 -35 -36 -47 -5 -44 -32 2 -32 33 0 35 -2
35 -35 0 -24 5 -35 15 -35 10 0 15 11 15 35 0 33 2 35 35 35 24 0 35 5 35 15
0 10 -11 15 -35 15 -33 0 -35 2 -35 35 0 46 -27 49 -32 3z"/>
<path d="M7062 6340 c-39 -24 -72 -75 -72 -113 0 -95 95 -167 182 -138 117 39
132 203 24 255 -46 22 -94 20 -134 -4z m118 -25 c54 -28 75 -98 43 -145 -33
-48 -81 -65 -129 -45 -84 35 -90 150 -10 189 39 20 60 20 96 1z"/>
<path d="M7050 6225 c0 -12 15 -15 86 -15 64 0 85 3 82 13 -3 8 -32 13 -86 15
-68 2 -82 0 -82 -13z"/>
<path d="M2027 5623 c-13 -12 -7 -110 7 -122 9 -8 189 -10 652 -9 l639 3 3 68
3 67 -649 0 c-357 0 -652 -3 -655 -7z m1273 -33 c0 -6 -57 -10 -150 -10 -127
0 -150 -2 -150 -15 0 -13 23 -15 151 -15 116 0 150 -3 146 -12 -6 -21 -1237
-17 -1237 3 0 5 65 9 145 9 122 0 145 2 145 15 0 13 -23 15 -145 15 -90 0
-145 4 -145 10 0 7 213 10 620 10 407 0 620 -3 620 -10z"/>
<path d="M2387 5574 c-20 -20 5 -24 136 -22 184 4 187 22 4 26 -73 1 -136 -1
-140 -4z"/>
<path d="M2697 5573 c-19 -19 5 -23 133 -23 118 0 140 2 140 15 0 13 -21 15
-133 15 -74 0 -137 -3 -140 -7z"/>
<path d="M3586 5614 c-9 -25 -7 -83 4 -105 10 -18 28 -19 649 -19 539 0 640 2
650 14 7 8 11 37 9 68 l-3 53 -651 3 c-588 2 -652 1 -658 -14z m1274 -24 c0
-5 -60 -11 -147 -12 -104 -2 -148 -7 -150 -15 -3 -9 33 -13 146 -15 94 -2 150
-7 149 -13 -4 -15 -1231 -12 -1236 3 -3 9 36 12 147 12 128 0 151 2 151 15 0
13 -23 15 -150 15 -93 0 -150 4 -150 10 0 7 213 10 620 10 395 0 620 -4 620
-10z"/>
<path d="M3947 5574 c-20 -20 5 -24 136 -22 184 4 187 22 4 26 -73 1 -136 -1
-140 -4z"/>
<path d="M4257 5574 c-19 -20 5 -24 139 -24 112 0 145 3 142 13 -5 13 -268 24
-281 11z"/>
<path d="M5377 5623 c-4 -3 -7 -32 -7 -64 0 -43 4 -58 16 -63 9 -3 298 -6 644
-6 530 0 629 2 639 14 7 8 11 37 9 68 l-3 53 -646 3 c-355 1 -649 -1 -652 -5z
m1268 -33 c4 -6 -50 -11 -145 -12 -200 -4 -203 -21 -5 -28 93 -3 149 -9 148
-15 -2 -6 -180 -11 -500 -13 -508 -3 -747 3 -737 19 3 5 70 9 150 9 121 0 144
2 144 15 0 13 -23 15 -150 15 -93 0 -150 4 -150 10 0 14 1236 14 1245 0z"/>
<path d="M5730 5565 c0 -13 22 -15 140 -15 118 0 140 2 140 15 0 13 -22 15
-140 15 -118 0 -140 -2 -140 -15z"/>
<path d="M6040 5565 c0 -13 21 -15 141 -15 108 0 140 3 137 13 -3 9 -43 13
-141 15 -117 2 -137 0 -137 -13z"/>
<path d="M6934 5616 c-3 -7 -4 -38 -2 -67 l3 -54 639 -3 c463 -1 643 1 652 9
8 6 14 30 14 54 0 82 64 75 -656 75 -536 0 -646 -2 -650 -14z m1266 -28 c0
-10 -35 -12 -150 -10 -132 3 -150 1 -150 -13 0 -14 18 -16 150 -13 110 2 151
0 154 -9 6 -14 -149 -18 -794 -18 -282 0 -436 4 -438 10 -1 6 53 11 143 13
120 2 145 5 145 17 0 13 -25 15 -150 15 -93 0 -150 4 -150 10 0 7 213 10 620
10 489 0 620 -3 620 -12z"/>
<path d="M7290 5565 c0 -13 18 -15 135 -13 82 2 135 7 135 13 0 6 -53 11 -135
13 -117 2 -135 0 -135 -13z"/>
<path d="M7597 5574 c-18 -18 16 -24 139 -24 112 0 134 2 134 15 0 13 -21 15
-133 15 -74 0 -137 -3 -140 -6z"/>
</g>
</svg>
