<?xml version="1.0" standalone="no"?>
<!DOCTYPE svg PUBLIC "-//W3C//DTD SVG 20010904//EN"
 "http://www.w3.org/TR/2001/REC-SVG-20010904/DTD/svg10.dtd">
<svg version="1.0" xmlns="http://www.w3.org/2000/svg"
 width="1024.000000pt" height="1024.000000pt" viewBox="0 0 1024.000000 1024.000000"
 preserveAspectRatio="xMidYMid meet">

<g transform="translate(0.000000,1024.000000) scale(0.100000,-0.100000)"
fill="#000000" stroke="none">
<path d="M0 5120 l0 -5120 5120 0 5120 0 0 5120 0 5120 -5120 0 -5120 0 0
-5120z m5152 1504 c4 -3 8 -18 8 -34 0 -21 -7 -33 -24 -42 -22 -12 -96 -74
-96 -80 0 -2 36 -3 79 -3 l80 0 -21 22 c-18 20 -20 27 -10 48 l12 26 143 -6
c78 -3 808 -9 1622 -13 l1480 -7 10 -32 9 -33 68 0 c111 0 108 8 108 -285 l0
-245 120 0 c115 0 122 -1 145 -25 24 -23 25 -29 25 -168 0 -164 4 -157 -86
-157 -49 0 -54 -2 -54 -22 -2 -336 -57 -2437 -65 -2460 -2 -7 -9 -87 -14 -177
l-11 -164 45 -42 45 -41 0 -103 0 -103 -30 -11 c-29 -11 -30 -14 -30 -69 l0
-57 -37 -8 c-58 -12 -7062 -9 -7098 3 -28 10 -30 14 -35 70 -4 51 -8 59 -27
62 -29 4 -38 49 -30 151 6 79 8 83 71 127 18 12 18 21 7 181 -28 417 -57 1282
-66 1988 -3 215 -8 454 -11 533 l-6 142 -57 0 c-31 0 -62 5 -69 12 -8 8 -12
56 -12 149 0 131 1 137 25 163 23 25 27 26 145 26 l120 0 0 243 c0 300 -5 287
116 287 81 0 84 1 84 23 0 13 5 28 12 35 9 9 358 12 1507 12 1649 0 1546 -4
1616 61 23 21 42 29 80 31 53 3 93 0 107 -8z"/>
<path d="M4991 6574 c-26 -33 -125 -72 -475 -186 -222 -72 -283 -88 -295 -79
-68 49 -76 52 -134 48 -94 -6 -148 -60 -154 -154 -3 -47 1 -66 19 -98 43 -73
147 -107 216 -71 57 30 102 96 102 151 0 26 -33 12 453 196 261 98 293 113
342 156 30 27 55 51 55 56 0 4 -24 7 -54 7 -47 0 -57 -4 -75 -26z m-799 -295
c46 -54 40 -134 -13 -185 -26 -25 -38 -29 -84 -29 -48 0 -58 4 -87 33 -30 29
-33 38 -33 92 0 53 3 63 31 91 17 17 47 34 65 38 40 9 96 -9 121 -40z"/>
<path d="M4026 6249 c-15 -17 -26 -43 -26 -59 0 -28 42 -90 61 -90 5 0 9 41 9
90 0 50 -4 90 -9 90 -5 0 -21 -14 -35 -31z"/>
<path d="M4120 6191 c0 -50 3 -91 8 -91 13 1 38 24 50 47 19 35 14 77 -10 100
-47 42 -48 40 -48 -56z"/>
<path d="M5200 6515 c0 -2 15 -12 33 -21 17 -9 48 -30 68 -45 26 -20 83 -42
190 -74 85 -24 253 -75 374 -112 l219 -68 18 -49 c29 -82 84 -126 158 -126 61
0 108 27 142 79 26 40 29 53 26 104 -7 92 -60 147 -151 155 -57 4 -100 -11
-139 -50 l-20 -20 -327 82 c-179 45 -342 89 -361 97 l-35 14 25 19 25 20 -122
0 c-68 0 -123 -2 -123 -5z m1134 -216 c56 -44 72 -118 36 -176 -54 -90 -175
-79 -224 21 -16 32 -17 44 -7 76 17 57 71 100 125 100 29 0 52 -7 70 -21z"/>
<path d="M6196 6249 c-14 -17 -26 -42 -26 -55 0 -44 35 -94 66 -94 8 0 4 169
-5 174 -5 4 -21 -8 -35 -25z"/>
<path d="M6290 6190 c0 -87 1 -90 20 -80 48 26 61 109 22 142 -41 35 -42 33
-42 -62z"/>
<path d="M1867 6503 c-3 -5 -8 -97 -12 -205 l-7 -198 188 0 187 0 -7 118 c-3
64 -9 156 -13 205 l-6 87 -163 0 c-89 0 -165 -3 -167 -7z"/>
<path d="M2240 6490 c0 -20 12 -20 823 -22 1502 -5 1557 -5 1612 10 28 8 54
18 59 22 5 5 -554 9 -1243 9 -1237 0 -1251 0 -1251 -19z"/>
<path d="M5833 6503 c-200 -2 -343 -7 -343 -12 0 -20 52 -25 245 -23 110 0
665 1 1233 2 1025 0 1032 0 1032 20 0 20 -6 20 -912 18 -502 -2 -1067 -4
-1255 -5z"/>
<path d="M8036 6483 c-3 -16 -8 -108 -12 -205 l-7 -178 203 0 203 0 -7 197
c-4 109 -10 201 -12 205 -3 5 -86 8 -184 8 l-178 0 -6 -27z"/>
<path d="M1675 6428 c-7 -23 -10 -468 -3 -468 13 0 38 45 38 68 0 15 7 26 20
29 10 3 22 14 25 24 4 12 16 19 30 19 26 0 28 12 40 233 l6 107 -76 0 c-52 0
-77 -4 -80 -12z"/>
<path d="M2244 6313 c11 -190 15 -213 38 -213 11 0 22 -8 25 -19 3 -11 16 -22
29 -25 17 -5 24 -13 24 -30 0 -14 12 -38 26 -56 l26 -31 110 3 109 3 2 243 2
242 -198 0 -199 0 6 -117z"/>
<path d="M2677 6423 c-4 -3 -7 -114 -7 -245 l0 -238 600 0 600 0 0 245 0 245
-593 0 c-327 0 -597 -3 -600 -7z"/>
<path d="M3909 6428 c-3 -5 -5 -158 -3 -158 1 0 11 16 23 35 36 61 128 102
202 90 21 -4 56 -18 76 -32 l38 -25 140 45 140 46 -307 1 c-170 0 -309 -1
-309 -2z"/>
<path d="M4960 6405 l0 -25 191 0 192 0 -37 25 c-35 24 -43 25 -191 25 l-155
0 0 -25z"/>
<path d="M5775 6409 c39 -10 129 -33 202 -50 l131 -31 34 25 c90 69 221 50
283 -40 l25 -38 0 78 0 77 -372 -1 -373 -1 70 -19z"/>
<path d="M6485 6408 c-3 -13 -4 -122 -2 -243 l2 -220 553 -3 552 -2 0 233 c0
168 -3 236 -12 245 -9 9 -145 12 -550 12 l-538 0 -5 -22z"/>
<path d="M7622 6188 l3 -243 104 -3 c101 -3 105 -2 132 24 15 15 29 38 31 53
2 15 12 30 25 36 12 5 24 17 26 27 3 10 12 18 20 18 16 0 21 36 31 238 l5 92
-190 0 -189 0 2 -242z"/>
<path d="M8452 6273 c3 -87 6 -161 7 -165 1 -5 8 -8 16 -8 9 0 18 -7 22 -16 3
-8 16 -20 29 -25 17 -6 24 -16 24 -36 0 -16 9 -39 20 -53 l20 -25 -3 240 -2
240 -70 3 -70 3 7 -158z"/>
<path d="M4610 6301 c-293 -113 -305 -119 -311 -147 -22 -107 -129 -186 -228
-169 -50 8 -105 42 -136 84 l-25 35 0 -82 0 -82 1270 0 1270 0 0 82 0 82 -36
-42 c-39 -46 -70 -66 -123 -77 -81 -17 -187 48 -218 134 l-17 49 -315 97
c-296 91 -317 96 -357 86 -24 -6 -130 -11 -237 -11 -208 0 -223 3 -229 51 l-3
27 -305 -117z"/>
<path d="M1908 6063 c67 -2 177 -2 245 0 67 1 12 3 -123 3 -135 0 -190 -2
-122 -3z"/>
<path d="M7983 6064 c7 -8 477 -7 485 1 3 3 -106 5 -243 5 -137 0 -246 -3
-242 -6z"/>
<path d="M1740 6008 c0 -7 -7 -25 -14 -40 l-15 -28 324 0 324 0 -17 40 -17 40
-292 0 c-228 0 -293 -3 -293 -12z"/>
<path d="M7920 6002 c0 -10 -7 -28 -16 -40 l-15 -22 327 0 c307 0 326 1 319
18 -4 9 -10 27 -12 40 l-5 22 -299 0 c-280 0 -299 -1 -299 -18z"/>
<path d="M1440 5900 l-55 -5 -3 -132 -3 -133 3751 0 3750 0 0 120 c0 108 -2
122 -21 141 l-20 20 -3672 -3 c-2020 -2 -3697 -5 -3727 -8z"/>
<path d="M1524 5193 c6 -378 27 -1175 46 -1773 9 -275 34 -657 43 -667 6 -6
1413 -22 1995 -23 l423 0 20 -47 c27 -63 56 -93 89 -93 39 0 74 32 99 90 l22
51 97 -3 97 -3 30 -60 c37 -75 72 -97 113 -75 15 9 41 42 59 75 22 41 37 60
50 59 10 -1 98 -2 195 -2 l177 -2 27 -56 c20 -42 35 -59 60 -70 49 -21 78 -3
112 67 l27 58 205 0 205 1 30 -58 c57 -108 116 -106 170 6 l30 62 95 -4 c52
-2 96 -5 96 -5 1 -1 9 -21 18 -46 31 -79 100 -110 143 -62 11 12 30 43 41 68
l20 46 988 8 c544 4 1059 10 1144 14 l155 6 12 165 c20 279 54 1398 69 2273
l7 397 -3608 0 -3608 0 7 -397z m1644 295 c7 -7 12 -21 12 -33 0 -12 -5 -26
-12 -33 -17 -17 -1319 -17 -1336 0 -7 7 -12 21 -12 33 0 12 5 26 12 33 17 17
1319 17 1336 0z m1720 0 c16 -16 15 -53 -2 -67 -9 -8 -195 -10 -677 -9 l-664
3 -9 27 c-21 60 -50 58 678 58 502 0 665 -3 674 -12z m1933 -12 c8 -17 8 -29
0 -45 l-12 -21 -667 0 c-506 0 -671 3 -680 12 -7 7 -12 21 -12 33 0 12 5 26
12 33 9 9 174 12 680 12 l668 0 11 -24z m1613 18 c20 -8 21 -57 2 -73 -9 -8
-192 -10 -666 -9 -642 3 -653 3 -660 23 -4 11 -4 30 1 43 l8 22 650 0 c357 0
656 -3 665 -6z"/>
<path d="M2010 5460 c-93 -3 119 -7 483 -8 363 -1 647 2 647 7 0 9 -872 11
-1130 1z"/>
<path d="M3740 5461 c-102 -3 -180 -8 -175 -11 11 -5 1313 3 1305 8 -10 7
-946 9 -1130 3z"/>
<path d="M6125 5460 c-357 -3 -645 -7 -640 -10 20 -10 1305 0 1305 10 0 6 -3
9 -7 8 -5 -2 -300 -5 -658 -8z"/>
<path d="M7535 5460 c-379 -5 -366 -5 238 -8 350 -1 637 1 637 6 0 8 -313 9
-875 2z"/>
<path d="M1537 2692 c-13 -14 -17 -39 -17 -106 0 -56 4 -85 10 -81 6 3 10 25
10 49 0 24 7 65 15 92 8 27 15 52 15 57 0 13 -16 7 -33 -11z"/>
<path d="M1606 2699 c-10 -29 -35 -133 -33 -136 4 -4 1753 -23 2131 -23 l338
0 -6 38 c-4 20 -11 53 -17 73 l-9 36 -533 7 c-1581 18 -1866 19 -1871 5z"/>
<path d="M7190 2699 c-437 -5 -800 -11 -806 -13 -6 -2 -14 -22 -17 -43 -4 -21
-9 -53 -13 -70 l-6 -33 328 0 c381 0 1997 20 2002 25 2 2 -5 34 -15 72 l-18
68 -330 1 c-182 0 -688 -3 -1125 -7z"/>
<path d="M8680 2708 c0 -2 7 -28 15 -58 8 -30 15 -74 15 -97 0 -23 5 -45 10
-48 6 -4 10 26 10 83 0 73 -3 92 -18 105 -16 15 -32 22 -32 15z"/>
<path d="M4261 2628 c-12 -34 -21 -68 -21 -75 0 -10 27 -13 115 -13 73 0 115
4 115 10 0 6 -7 40 -16 75 l-16 65 -78 0 -78 0 -21 -62z"/>
<path d="M4707 2683 c-10 -17 -39 -134 -35 -138 3 -3 99 -4 215 -3 l209 3 -19
73 -20 72 -173 0 c-95 0 -175 -3 -177 -7z"/>
<path d="M5313 2615 l-20 -75 219 0 c168 0 218 3 218 13 0 6 -8 39 -18 72
l-18 60 -180 3 -181 2 -20 -75z"/>
<path d="M5951 2638 c-6 -29 -14 -63 -17 -75 -6 -23 -6 -23 105 -23 61 0 111
4 111 9 0 5 -9 39 -20 75 l-21 66 -73 0 -73 0 -12 -52z"/>
<path d="M4070 2565 c0 -22 45 -65 67 -65 25 0 59 25 65 48 5 17 0 18 -42 14
-26 -2 -57 1 -69 7 -17 10 -21 9 -21 -4z"/>
<path d="M5240 2563 c-30 -15 -65 -17 -91 -3 -24 13 -27 -11 -4 -34 37 -36 98
-26 115 20 13 33 11 34 -20 17z"/>
<path d="M6296 2568 c-10 -6 -40 -8 -66 -6 -43 4 -47 3 -42 -14 13 -51 88 -58
119 -12 19 30 14 46 -11 32z"/>
<path d="M4514 2543 c25 -50 63 -56 101 -18 32 31 33 50 4 34 -22 -11 -69 -9
-103 6 -17 8 -17 6 -2 -22z"/>
<path d="M5764 2553 c3 -8 6 -16 6 -19 0 -2 13 -10 29 -19 36 -18 74 -7 91 25
15 29 10 32 -27 18 -24 -9 -41 -9 -68 -1 -31 10 -36 10 -31 -4z"/>
<path d="M1570 2452 l0 -80 428 -8 c557 -11 5700 -11 6255 0 l427 8 0 79 0 79
-122 -5 c-68 -3 -597 -10 -1176 -15 -907 -8 -1057 -12 -1082 -25 -39 -20 -69
-19 -107 5 -30 18 -42 19 -165 11 -73 -4 -148 -14 -165 -22 -28 -11 -38 -11
-65 0 -41 17 -323 34 -437 26 -47 -4 -97 -13 -112 -21 -35 -18 -77 -17 -109 1
-37 21 -475 21 -516 0 -37 -19 -67 -19 -104 0 -46 24 -287 25 -320 2 -30 -21
-88 -22 -117 -2 -19 13 -169 17 -1160 25 -626 5 -1186 12 -1245 15 l-108 6 0
-79z"/>
</g>
</svg>
